<?xml version="1.0" encoding="UTF-8" standalone="no"?>
<!-- Created with Inkscape (http://www.inkscape.org/) -->
<svg
   xmlns:dc="http://purl.org/dc/elements/1.1/"
   xmlns:cc="http://web.resource.org/cc/"
   xmlns:rdf="http://www.w3.org/1999/02/22-rdf-syntax-ns#"
   xmlns:svg="http://www.w3.org/2000/svg"
   xmlns="http://www.w3.org/2000/svg"
   xmlns:xlink="http://www.w3.org/1999/xlink"
   xmlns:sodipodi="http://sodipodi.sourceforge.net/DTD/sodipodi-0.dtd"
   xmlns:inkscape="http://www.inkscape.org/namespaces/inkscape"
   width="608"
   height="720"
   id="svg2278"
   sodipodi:version="0.32"
   inkscape:version="0.45.1"
   version="1.0"
   sodipodi:docbase="/Users/lindberg/Projects/Wiki/seals"
   sodipodi:docname="SenateLogo.svg"
   inkscape:output_extension="org.inkscape.output.svg.inkscape"
   inkscape:export-filename="/Users/lindberg/Projects/Wiki/seals/SenateLogo.png"
   inkscape:export-xdpi="90"
   inkscape:export-ydpi="90">
  <defs
     id="defs2280">
    <clipPath
       id="SVGID_4_">
			<use
   xlink:href="#SVGID_3_"
   overflow="visible"
   id="use17"
   style="overflow:visible"
   x="0"
   y="0"
   width="634.40002"
   height="717.80402" />

		</clipPath>
    <clipPath
       id="SVGID_2_">
		<use
   xlink:href="#SVGID_1_"
   overflow="visible"
   id="use9"
   style="overflow:visible"
   x="0"
   y="0"
   width="634.40002"
   height="717.80402" />

	</clipPath>
  </defs>
  <sodipodi:namedview
     pagecolor="#ffffff"
     bordercolor="#666666"
     borderopacity="1.0"
     inkscape:pageopacity="0.0"
     inkscape:pageshadow="2"
     inkscape:zoom="0.28284271"
     inkscape:cx="210"
     inkscape:cy="210"
     inkscape:document-units="pt"
     inkscape:current-layer="layer1"
     id="namedview2282"
     width="608px"
     height="720px"
     inkscape:showpageshadow="false"
     inkscape:window-width="697"
     inkscape:window-height="581"
     inkscape:window-x="183"
     inkscape:window-y="22" />
  <metadata
     id="metadata2284">
    <rdf:RDF>
      <cc:Work
         rdf:about="">
        <dc:format>image/svg+xml</dc:format>
        <dc:type
           rdf:resource="http://purl.org/dc/dcmitype/StillImage" />
      </cc:Work>
    </rdf:RDF>
  </metadata>
  <g
     inkscape:label="Layer 1"
     inkscape:groupmode="layer"
     id="layer1">
    <g
       id="g3"
       transform="matrix(0.9654821,0,0,1.0034298,0,-0.2037159)">
	<defs
   id="defs5">
		<rect
   id="SVGID_1_"
   y="0.066"
   width="629.56598"
   height="717.737"
   x="0" />

	</defs>

	<clipPath
   id="clipPath2294">
		<use
   xlink:href="#SVGID_1_"
   overflow="visible"
   id="use2296"
   style="overflow:visible"
   x="0"
   y="0"
   width="634.40002"
   height="717.80402" />

	</clipPath>

	<g
   clip-path="url(#SVGID_2_)"
   id="g11">
		<defs
   id="defs13">
			<rect
   id="SVGID_3_"
   width="629.56598"
   height="717.742"
   x="0"
   y="0" />

		</defs>

		<clipPath
   id="clipPath2301">
			<use
   xlink:href="#SVGID_3_"
   overflow="visible"
   id="use2303"
   style="overflow:visible"
   x="0"
   y="0"
   width="634.40002"
   height="717.80402" />

		</clipPath>

		
			<rect
   y="0.20299999"
   clip-path="url(#SVGID_4_)"
   clip-rule="evenodd"
   width="634.40002"
   height="717.60101"
   id="rect19"
   x="0"
   style="fill:#002b55;fill-rule:evenodd" />

	</g>

</g>
    <rect
       x="45.179977"
       y="399.03235"
       clip-rule="evenodd"
       width="517.45288"
       height="3.7608333"
       id="rect21"
       style="fill:#ffffff;fill-rule:evenodd" />
    <rect
       x="45.179977"
       y="538.3092"
       clip-rule="evenodd"
       width="517.45288"
       height="3.7497785"
       id="rect23"
       style="fill:#ffffff;fill-rule:evenodd" />
    <rect
       x="45.179977"
       y="669.9859"
       clip-rule="evenodd"
       width="517.45288"
       height="3.7497785"
       id="rect25"
       style="fill:#ffffff;fill-rule:evenodd" />
    <rect
       x="45.179977"
       y="264.66052"
       clip-rule="evenodd"
       width="159.32912"
       height="3.7608333"
       id="rect27"
       style="fill:#ffffff;fill-rule:evenodd" />
    <rect
       x="406.17792"
       y="266.1662"
       clip-rule="evenodd"
       width="156.45485"
       height="3.7508841"
       id="rect29"
       style="fill:#ffffff;fill-rule:evenodd" />
    <path
       clip-rule="evenodd"
       d="M 55.66099,343.08527 L 55.66099,319.0533 C 55.66099,309.04432 54.51572,307.43253 46.60603,307.43253 L 46.60603,305.3277 L 72.32386,305.3277 L 72.32386,307.43253 C 64.402,307.43253 63.25783,309.04432 63.25783,319.0533 L 63.25783,343.575 C 63.25783,356.5931 70.41581,362.60027 79.95274,362.60027 C 89.97279,362.60027 97.51325,356.5931 97.51325,343.575 L 97.51325,319.0533 C 97.51325,309.04432 96.2729,307.43253 88.35215,307.43253 L 88.35215,305.3277 L 110.64963,305.3277 L 110.64963,307.43253 C 102.73441,307.43253 101.49959,309.04432 101.49959,319.0533 L 101.49959,343.08527 C 101.49959,358.79299 91.21535,367.07855 78.52889,367.07855 C 65.92313,367.07855 55.66099,358.79299 55.66099,343.08527"
       id="path31"
       style="fill:#ffffff;fill-rule:evenodd" />
    <path
       clip-rule="evenodd"
       d="M 158.21831,316.72849 L 158.21831,351.53996 C 158.21831,361.54343 159.45313,363.24476 167.36282,363.24476 L 167.36282,365.34959 L 145.60924,365.34959 L 145.60924,363.24476 C 153.52999,363.24476 154.6631,361.54343 154.6631,351.53996 L 154.6631,319.03672 C 154.6631,309.03215 153.52999,307.43253 145.60924,307.43253 L 145.60924,305.3277 L 159.07064,305.3277 L 195.63319,352.93729 L 195.63319,319.03672 C 195.63319,309.03215 194.48791,307.43253 186.57823,307.43253 L 186.57823,305.3277 L 208.33734,305.3277 L 208.33734,307.43253 C 200.41107,307.43253 199.17625,309.03215 199.17625,319.03672 L 199.17625,367.04539 L 196.97634,367.04539 L 158.21831,316.72849"
       id="path33"
       style="fill:#ffffff;fill-rule:evenodd" />
    <path
       clip-rule="evenodd"
       d="M 264.72772,319.03672 L 264.72772,351.53996 C 264.72772,361.54343 265.87299,363.24476 273.78268,363.24476 L 273.78268,365.34959 L 248.07703,365.34959 L 248.07703,363.24476 C 255.99778,363.24476 257.13199,361.54343 257.13199,351.53996 L 257.13199,319.03672 C 257.13199,309.03215 255.99778,307.43253 248.07703,307.43253 L 248.07703,305.3277 L 273.78268,305.3277 L 273.78268,307.43253 C 265.87299,307.43253 264.72772,309.03215 264.72772,319.03672"
       id="path35"
       style="fill:#ffffff;fill-rule:evenodd" />
    <path
       clip-rule="evenodd"
       d="M 347.52466,309.18471 L 347.52466,351.52891 C 347.52466,361.53348 348.75948,363.24586 356.66917,363.24586 L 356.66917,365.35069 L 330.86843,365.35069 L 330.86843,363.24586 C 338.78365,363.24586 340.01294,361.53348 340.01294,351.52891 L 340.01294,309.18471 L 327.52879,309.18471 C 318.7712,309.18471 317.80501,311.49184 316.46959,316.7915 L 316.00861,318.7902 L 313.99443,318.7902 L 314.86444,305.3277 L 372.68642,305.3277 L 373.5498,318.7902 L 371.54115,318.7902 L 371.06911,316.7915 C 369.73922,311.49184 368.77856,309.18471 360.00991,309.18471 L 347.52466,309.18471"
       id="path37"
       style="fill:#ffffff;fill-rule:evenodd" />
    <path
       clip-rule="evenodd"
       d="M 420.34686,351.55102 L 420.34686,318.98587 C 420.34686,308.98793 419.18943,307.40379 411.28637,307.40379 L 411.28637,305.32659 L 454.77032,305.32659 L 455.6348,318.48509 L 453.6361,318.48509 L 453.16405,316.49191 C 451.81648,311.28843 450.86245,308.98683 442.08718,308.98683 L 427.94039,308.98683 L 427.94039,331.6878 L 432.71715,331.6878 C 442.28285,331.6878 443.80399,330.49831 443.80399,322.08785 L 445.80821,322.08785 L 445.80821,345.00328 L 443.80399,345.00328 C 443.80399,336.54969 442.28285,335.34804 432.71715,335.34804 L 427.94039,335.34804 L 427.94039,350.0332 C 427.94039,360.09304 429.08013,361.6993 437.01856,361.6993 L 445.24773,361.6993 C 454.01085,361.6993 455.05442,359.38553 456.3014,354.05272 L 456.77234,352.05401 L 458.78762,352.05401 L 458.01378,365.35842 L 411.28416,365.35842 L 411.28416,363.28124 C 419.18943,363.28345 420.34686,361.5998 420.34686,351.55102"
       id="path39"
       style="fill:#ffffff;fill-rule:evenodd" />
    <path
       clip-rule="evenodd"
       d="M 519.27159,308.98793 C 519.27159,308.98793 527.37253,308.98793 528.5167,308.98793 C 547.10419,308.98793 551.11155,323.61672 551.11155,335.35025 C 551.11155,347.07716 547.10419,361.70151 528.5167,361.70151 L 528.12979,361.70151 C 520.31516,361.70151 519.27049,360.10741 519.27049,350.08073 L 519.27049,308.98793 M 502.61647,363.28345 L 502.61647,365.36064 L 528.41721,365.36064 C 550.61961,365.36064 560.22953,351.88709 560.22953,335.35025 C 560.22953,318.81342 550.61961,305.3277 528.41721,305.3277 L 502.61647,305.3277 L 502.61647,307.40489 C 510.53169,307.40489 511.67586,308.98905 511.67586,319.01461 L 511.67586,351.58529 C 511.67586,361.5998 510.53169,363.28345 502.61647,363.28345 z "
       id="path41"
       style="fill:#ffffff;fill-rule:evenodd" />
    <path
       clip-rule="evenodd"
       d="M 281.10868,192.95152 L 277.1566,192.95152 L 276.8537,193.02891 L 276.68567,195.63341 C 275.76592,204.76134 279.72352,206.99551 279.72352,206.99551 L 281.10868,192.95152"
       id="path43"
       style="fill:#ffffff;fill-rule:evenodd" />
    <path
       clip-rule="evenodd"
       d="M 287.13796,193.18699 L 283.18588,193.18699 L 282.8874,193.28207 L 282.71384,195.88214 C 281.79297,205.00454 285.75058,207.24424 285.75058,207.24424 L 287.13796,193.18699"
       id="path45"
       style="fill:#ffffff;fill-rule:evenodd" />
    <path
       clip-rule="evenodd"
       d="M 293.57073,193.18699 L 289.63081,193.18699 L 289.31574,193.28207 L 289.14219,195.88214 C 288.23349,205.00454 292.19662,207.24424 292.19662,207.24424 L 293.57073,193.18699"
       id="path47"
       style="fill:#ffffff;fill-rule:evenodd" />
    <path
       clip-rule="evenodd"
       d="M 332.06456,192.95152 L 336.01664,192.95152 L 336.31954,193.02891 L 336.48758,195.63341 C 337.40843,204.76134 333.45636,206.99551 333.45636,206.99551 L 332.06456,192.95152"
       id="path49"
       style="fill:#ffffff;fill-rule:evenodd" />
    <path
       clip-rule="evenodd"
       d="M 325.85067,193.18699 L 329.79723,193.18699 L 330.0946,193.28207 L 330.26816,195.88214 C 331.20118,205.00454 327.23142,207.24424 327.23142,207.24424 L 325.85067,193.18699"
       id="path51"
       style="fill:#ffffff;fill-rule:evenodd" />
    <path
       clip-rule="evenodd"
       d="M 319.60142,193.18699 L 323.54243,193.18699 L 323.8564,193.28207 L 324.02443,195.88214 C 324.93976,205.00454 320.98215,207.24424 320.98215,207.24424 L 319.60142,193.18699"
       id="path53"
       style="fill:#ffffff;fill-rule:evenodd" />
    <path
       clip-rule="evenodd"
       d="M 348.78822,247.65164 C 348.78822,236.76711 329.58939,227.94209 305.91118,227.94209 C 282.23737,227.94209 263.04409,236.76711 263.04409,247.65164 C 263.04409,248.2696 263.11262,248.85882 263.23533,249.46573 C 265.23403,239.43462 283.5739,231.58022 305.91118,231.58022 C 328.25951,231.58022 346.59938,239.43352 348.59145,249.46573 C 348.72079,248.85772 348.78822,248.2685 348.78822,247.65164"
       id="path55"
       style="fill:#ffffff;fill-rule:evenodd" />
    <polyline
       clip-rule="evenodd"
       points="295.228,266.846 293.908,262.569 297.366,259.935   293.085,259.935 291.765,255.663 290.445,259.935 286.164,259.935 289.626,262.569 288.301,266.846 291.765,264.2 295.228,266.846   "
       id="polyline57"
       transform="matrix(1.1054772,0,0,1.1054772,-42.81712,-39.974719)"
       style="fill:#ffffff;fill-rule:evenodd" />
    <polyline
       clip-rule="evenodd"
       points="310.889,266.846 309.574,262.569 313.032,259.935   308.756,259.935 307.436,255.663 306.105,259.935 301.83,259.935 305.283,262.569 303.972,266.846 307.436,264.2 310.889,266.846   "
       id="polyline59"
       transform="matrix(1.1054772,0,0,1.1054772,-42.81712,-39.974719)"
       style="fill:#ffffff;fill-rule:evenodd" />
    <polyline
       clip-rule="evenodd"
       points="342.236,266.846 340.911,262.569 344.369,259.935   340.098,259.935 338.768,255.663 337.453,259.935 333.162,259.935 336.63,262.569 335.304,266.846 338.768,264.2 342.236,266.846   "
       id="polyline61"
       transform="matrix(1.1054772,0,0,1.1054772,-42.81712,-39.974719)"
       style="fill:#ffffff;fill-rule:evenodd" />
    <polyline
       clip-rule="evenodd"
       points="326.56,266.846 325.24,262.569 328.708,259.935   324.427,259.935 323.097,255.663 321.777,259.935 317.496,259.935 320.964,262.569 319.644,266.846 323.102,264.2 326.56,266.846   "
       id="polyline63"
       transform="matrix(1.1054772,0,0,1.1054772,-42.81712,-39.974719)"
       style="fill:#ffffff;fill-rule:evenodd" />
    <polyline
       clip-rule="evenodd"
       points="284.878,275.59 283.558,271.324 282.233,275.59   277.953,275.59 281.42,278.23 280.1,282.512 283.558,279.86 287.022,282.512 285.702,278.23 289.155,275.59 284.878,275.59 "
       id="polyline65"
       transform="matrix(1.1054772,0,0,1.1054772,-42.81712,-39.974719)"
       style="fill:#ffffff;fill-rule:evenodd" />
    <polyline
       clip-rule="evenodd"
       points="300.555,275.59 299.219,271.324 297.899,275.59   293.624,275.59 297.077,278.23 295.766,282.512 299.219,279.86 302.688,282.512 301.368,278.23 304.826,275.59 300.555,275.59 "
       id="polyline67"
       transform="matrix(1.1054772,0,0,1.1054772,-42.81712,-39.974719)"
       style="fill:#ffffff;fill-rule:evenodd" />
    <polyline
       clip-rule="evenodd"
       points="331.892,275.59 330.562,271.324 329.242,275.59   324.956,275.59 328.418,278.23 327.098,282.512 330.562,279.86 334.015,282.512 332.7,278.23 336.167,275.59 331.892,275.59 "
       id="polyline69"
       transform="matrix(1.1054772,0,0,1.1054772,-42.81712,-39.974719)"
       style="fill:#ffffff;fill-rule:evenodd" />
    <polyline
       clip-rule="evenodd"
       points="348.122,275.59 346.806,271.324 345.471,275.59   341.201,275.59 344.659,278.23 343.333,282.512 346.806,279.86 350.265,282.512 348.934,278.23 352.408,275.59 348.122,275.59 "
       id="polyline71"
       transform="matrix(1.1054772,0,0,1.1054772,-42.81712,-39.974719)"
       style="fill:#ffffff;fill-rule:evenodd" />
    <polyline
       clip-rule="evenodd"
       points="316.216,275.59 314.901,271.324 313.57,275.59   309.285,275.59 312.748,278.23 311.432,282.512 314.901,279.86 318.354,282.512 317.039,278.23 320.497,275.59 316.216,275.59 "
       id="polyline73"
       transform="matrix(1.1054772,0,0,1.1054772,-42.81712,-39.974719)"
       style="fill:#ffffff;fill-rule:evenodd" />
    <path
       clip-rule="evenodd"
       d="M 321.43761,81.473004 C 335.43184,74.164684 340.35011,78.217374 340.25947,78.463884 C 338.57582,83.369994 336.66666,86.244234 340.19756,88.916174 C 347.23171,94.237944 366.50349,82.998554 375.06431,78.385404 C 375.06431,78.385404 385.57408,73.164234 385.38283,80.214964 C 385.38283,80.214964 387.97628,78.732514 393.05153,77.285444 C 397.01466,76.173334 385.85487,65.350724 371.76445,71.626514 C 359.70038,78.122294 345.26727,82.662494 341.7817,82.163924 C 341.8204,82.029054 341.86572,81.876494 341.9431,81.686354 C 343.53721,77.026764 346.56952,75.073384 343.56595,72.423564 C 338.3503,67.820354 323.6773,72.625864 316.52487,75.498994 L 320.79643,81.809064 L 321.43761,81.473004"
       id="path75"
       style="fill:#ffffff;fill-rule:evenodd" />
    <path
       clip-rule="evenodd"
       d="M 210.63894,76.286094 L 211.09992,75.999784 C 226.93588,64.340324 233.00937,70.526564 233.10555,72.368284 C 233.26253,75.365244 233.48694,72.682254 233.2968,75.999784 C 232.60034,88.299324 245.64719,74.669894 255.68381,78.677244 C 257.90693,79.574894 258.15345,79.666644 258.15345,79.666644 C 256.55936,77.173794 257.3564,71.167744 257.3564,71.167744 L 254.16157,70.639324 C 254.16157,70.639324 254.11072,70.672484 254.0665,70.741024 C 238.15647,68.792074 235.78743,77.618204 236.14672,73.744604 C 236.17988,73.637384 236.93824,66.822114 234.48518,64.514984 C 231.91384,62.096194 218.41266,60.488834 200.43759,75.905814 L 200.20766,76.174444 C 200.20876,76.173334 203.41465,75.297804 210.63894,76.286094"
       id="path77"
       style="fill:#ffffff;fill-rule:evenodd" />
    <path
       clip-rule="evenodd"
       d="M 285.22438,97.685924 C 285.05634,94.317544 283.18588,90.179734 283.18588,90.179734 C 277.72371,91.700874 273.78268,86.407854 271.18371,83.146694 L 271.12181,82.838264 L 270.29712,82.030164 C 270.13461,81.822324 269.99864,81.659824 269.9091,81.575814 L 269.90357,81.643234 L 269.49344,81.289494 C 269.49344,81.289494 268.13039,84.147144 269.49344,86.987114 L 269.0214,86.410054 L 269.00482,86.477494 C 268.83236,86.030884 275.73054,99.728854 285.22438,97.685924"
       id="path79"
       style="fill:#ffffff;fill-rule:evenodd" />
    <path
       clip-rule="evenodd"
       d="M 72.04749,498.57506 C 54.59973,498.57506 54.41512,480.52704 54.41512,480.52704 L 52.4949,480.52704 L 52.4949,502.52714 L 54.41512,502.52714 C 54.89268,500.36041 56.04349,498.87796 57.19429,497.87308 C 60.25426,498.57506 64.81214,502.52714 72.04859,502.52714 C 81.84974,502.52714 90.16956,495.4764 90.16956,484.5355 C 90.16956,479.02912 87.58717,473.2121 80.23354,469.29428 L 71.10009,464.38817 C 62.91513,459.87452 59.59207,457.15725 59.59207,451.9593 C 59.59207,446.94043 63.49329,443.02263 68.81617,443.02263 C 79.85767,443.02263 82.70317,452.54299 83.37198,460.58202 L 85.38174,460.58202 L 85.38174,438.56423 L 83.46816,438.56423 C 82.99612,440.64696 81.85084,442.1294 80.7111,443.12212 C 77.85455,440.94986 74.72163,439.06943 69.09696,439.06943 C 59.86733,439.06943 53.2599,445.63265 53.2599,453.95137 C 53.2599,461.57032 58.34067,467.49235 63.87689,470.49594 L 73.00483,475.4131 C 79.57245,479.02912 83.94572,482.93588 83.94572,487.55013 C 83.94352,493.97186 78.80636,498.57506 72.04749,498.57506"
       id="path81"
       style="fill:#ffffff;fill-rule:evenodd" />
    <path
       clip-rule="evenodd"
       d="M 178.29267,444.63773 C 187.06132,444.63773 188.01535,446.94596 189.34634,452.23898 L 189.82944,454.25427 L 191.83256,454.25427 L 190.97471,440.78071 L 133.14167,440.78071 L 132.27829,454.25427 L 134.28695,454.25427 L 134.75898,452.23898 C 136.08888,446.94596 137.03847,444.63773 145.81817,444.63773 L 158.30344,444.63773 L 158.30344,486.98855 C 158.30344,496.99312 157.06309,498.69887 149.14787,498.69887 L 149.14787,500.8037 L 174.95414,500.8037 L 174.95414,498.69887 C 167.04445,498.69887 165.81405,496.99312 165.81405,486.98855 L 165.81405,444.63773 L 178.29267,444.63773"
       id="path83"
       style="fill:#ffffff;fill-rule:evenodd" />
    <path
       clip-rule="evenodd"
       d="M 245.41062,476.37818 L 255.28585,452.20029 L 265.26056,476.37818 L 245.41062,476.37818 M 264.02574,498.69777 L 264.02574,500.8026 L 290.42785,500.8026 L 290.42785,498.69777 C 282.51816,498.69777 282.03508,496.99754 279.0934,489.99655 L 258.0418,439.06943 L 256.80698,439.06943 L 235.87919,489.99655 C 232.93199,496.99754 232.45442,498.69777 224.46072,498.69777 L 224.46072,500.8026 L 246.74161,500.8026 L 246.74161,498.69777 C 238.84187,498.69777 237.03,496.49786 239.31391,491.10866 L 243.87842,480.02736 L 266.88341,480.02736 L 271.45897,491.10866 C 273.74952,496.59957 271.93543,498.69777 264.02574,498.69777 z "
       id="path85"
       style="fill:#ffffff;fill-rule:evenodd" />
    <path
       clip-rule="evenodd"
       d="M 367.48184,444.63773 C 376.25712,444.63773 377.21114,446.94596 378.54656,452.23898 L 379.0186,454.25427 L 381.0173,454.25427 L 380.16497,440.78071 L 322.33304,440.78071 L 321.46856,454.25427 L 323.47721,454.25427 L 323.94926,452.23898 C 325.28577,446.94596 326.25086,444.63773 335.00845,444.63773 L 347.4937,444.63773 L 347.4937,486.98855 C 347.4937,496.99312 346.25889,498.69887 338.3492,498.69887 L 338.3492,500.8037 L 364.14993,500.8037 L 364.14993,498.69887 C 356.23471,498.69887 355.00653,496.99312 355.00653,486.98855 L 355.00653,444.63773 L 367.48184,444.63773"
       id="path87"
       style="fill:#ffffff;fill-rule:evenodd" />
    <path
       clip-rule="evenodd"
       d="M 421.61595,498.74309 L 421.61595,500.82028 L 468.34558,500.82028 L 469.10835,487.50481 L 467.10965,487.50481 L 466.63762,489.51346 C 465.39727,494.84629 464.34706,497.16005 455.57842,497.16005 L 447.34924,497.16005 C 439.42187,497.16005 438.2766,495.54827 438.2766,485.484 L 438.2766,470.79774 L 443.04784,470.79774 C 452.61353,470.79774 454.1413,472.00491 454.1413,480.45961 L 456.14,480.45961 L 456.14,457.54859 L 454.1413,457.54859 C 454.1413,465.948 452.61353,467.14856 443.04784,467.14856 L 438.2766,467.14856 L 438.2766,444.44758 L 452.42339,444.44758 C 461.19314,444.44758 462.14716,446.74255 463.49475,451.94714 L 463.96678,453.94585 L 465.96991,453.94585 L 465.0999,440.78181 L 421.61595,440.78181 L 421.61595,442.86454 C 429.53116,442.86454 430.67644,444.44869 430.67644,454.45104 L 430.67644,486.99961 C 430.67644,497.06497 429.53116,498.74309 421.61595,498.74309"
       id="path89"
       style="fill:#ffffff;fill-rule:evenodd" />
    <path
       clip-rule="evenodd"
       d="M 539.6389,498.57506 C 522.20222,498.57506 522.01207,480.52704 522.01207,480.52704 L 520.09739,480.52704 L 520.09739,502.52714 L 522.01207,502.52714 C 522.48964,500.36041 523.63381,498.87796 524.78461,497.87308 C 527.84457,498.57506 532.41903,502.52714 539.64001,502.52714 C 549.44118,502.52714 557.76099,495.4764 557.76099,484.5355 C 557.76099,479.02912 555.19075,473.2121 547.82496,469.29428 L 538.69704,464.38817 C 530.51209,459.87452 527.18902,457.15725 527.18902,451.9593 C 527.18902,446.94043 531.0803,443.02263 536.40648,443.02263 C 547.4491,443.02263 550.2946,452.54299 550.96895,460.58202 L 552.9787,460.58202 L 552.9787,438.56423 L 551.06954,438.56423 C 550.58645,440.64696 549.44118,442.1294 548.30695,443.12212 C 545.45592,440.94986 542.31195,439.06943 536.69833,439.06943 C 527.46871,439.06943 520.85574,445.63265 520.85574,453.95137 C 520.85574,461.57032 525.93098,467.49235 531.46611,470.49594 L 540.59514,475.4131 C 547.16279,479.02912 551.54157,482.93588 551.54157,487.55013 C 551.54047,493.97186 546.39779,498.57506 539.6389,498.57506"
       id="path91"
       style="fill:#ffffff;fill-rule:evenodd" />
    <path
       clip-rule="evenodd"
       d="M 71.22833,636.67901 C 53.78058,636.67901 53.5838,618.62546 53.5838,618.62546 L 51.67465,618.62546 L 51.67465,640.62556 L 53.5838,640.62556 C 54.07131,638.46436 55.2177,636.98191 56.37292,635.97703 C 59.42735,636.67901 63.99187,640.62556 71.22833,640.62556 C 81.02947,640.62556 89.35372,633.57483 89.35372,622.63835 C 89.35372,617.11428 86.76026,611.30941 79.41217,607.3916 L 70.27872,602.48992 C 62.09376,597.97072 58.75301,595.25346 58.75301,590.04445 C 58.75301,585.03665 62.65977,581.12989 67.98265,581.12989 C 79.03077,581.12989 81.8818,590.65025 82.55614,598.67823 L 84.56037,598.67823 L 84.56037,576.6726 L 82.64568,576.6726 C 82.16259,578.74426 81.02947,580.23224 79.89526,581.21942 C 77.03871,579.04164 73.88811,577.16675 68.27449,577.16675 C 59.05149,577.16675 52.44405,583.72996 52.44405,592.05421 C 52.44405,599.67758 57.5193,605.58967 63.04337,608.6043 L 72.17683,613.51042 C 78.74446,617.11428 83.12988,621.03319 83.12988,625.64745 C 83.12878,632.06474 77.98609,636.67901 71.22833,636.67901"
       id="path93"
       style="fill:#ffffff;fill-rule:evenodd" />
    <path
       clip-rule="evenodd"
       d="M 131.09211,636.84151 L 131.09211,638.90765 L 177.81622,638.90765 L 178.58452,625.60323 L 176.57587,625.60323 L 176.10936,627.61741 C 174.86901,632.93917 173.81328,635.25847 165.04463,635.25847 L 156.82099,635.25847 C 148.88809,635.25847 147.74944,633.64668 147.74944,623.58241 L 147.74944,608.89615 L 152.52069,608.89615 C 162.07974,608.89615 163.61304,610.10997 163.61304,618.55803 L 165.6228,618.55803 L 165.6228,595.65365 L 163.61304,595.65365 C 163.61304,604.04642 162.07974,605.24698 152.52069,605.24698 L 147.74944,605.24698 L 147.74944,582.546 L 161.89071,582.546 C 170.6693,582.546 171.62444,584.84097 172.96096,590.04556 L 173.44405,592.04868 L 175.4317,592.04868 L 174.57937,578.88466 L 131.09433,578.88466 L 131.09433,580.96738 C 139.00954,580.96738 140.14929,582.546 140.14929,592.54946 L 140.14929,625.0925 C 140.14708,635.16339 139.00733,636.84151 131.09211,636.84151"
       id="path95"
       style="fill:#ffffff;fill-rule:evenodd" />
    <path
       clip-rule="evenodd"
       d="M 222.91195,636.79619 L 222.91195,638.89549 L 244.64783,638.89549 L 244.64783,636.79619 C 236.75473,636.79619 235.51439,635.09044 235.51439,625.0914 L 235.51439,590.29208 L 274.26578,640.60235 L 276.47232,640.60235 L 276.47232,592.58705 C 276.47232,582.58911 277.71266,580.99502 285.62235,580.99502 L 285.62235,578.88466 L 263.87982,578.88466 L 263.87982,580.99502 C 271.78398,580.99502 272.92373,582.58911 272.92373,592.58705 L 272.92373,626.48872 L 236.36781,578.88466 L 222.91195,578.88466 L 222.91195,580.99502 C 230.82053,580.99502 231.96581,582.58911 231.96581,592.58705 L 231.96581,625.09029 C 231.96581,635.09044 230.82053,636.79619 222.91195,636.79619"
       id="path97"
       style="fill:#ffffff;fill-rule:evenodd" />
    <path
       clip-rule="evenodd"
       d="M 338.04298,614.4766 L 347.92926,590.30424 L 357.90951,614.4766 L 338.04298,614.4766 M 356.66475,636.79619 L 356.66475,638.89549 L 383.07238,638.89549 L 383.07238,636.79619 C 375.1627,636.79619 374.68512,635.09597 371.72023,628.10713 L 350.6808,577.16785 L 349.44598,577.16785 L 328.51709,628.10713 C 325.57541,635.09597 325.09231,636.79619 317.09861,636.79619 L 317.09861,638.89549 L 339.39056,638.89549 L 339.39056,636.79619 C 331.47534,636.79619 329.65683,634.59629 331.9518,629.20709 L 336.52737,618.12026 L 359.51577,618.12026 L 364.10792,629.20709 C 366.38742,634.69136 364.5678,636.79619 356.66475,636.79619 z "
       id="path99"
       style="fill:#ffffff;fill-rule:evenodd" />
    <path
       clip-rule="evenodd"
       d="M 457.75068,582.74831 C 466.50828,582.74831 467.46782,585.04438 468.80435,590.34956 L 469.27086,592.34827 L 471.27398,592.34827 L 470.41503,578.88576 L 412.58752,578.88576 L 411.72303,592.34827 L 413.72284,592.34827 L 414.20041,590.34956 C 415.54135,585.04438 416.49538,582.74831 425.25297,582.74831 L 437.75039,582.74831 L 437.75039,625.07592 C 437.75039,635.09154 436.50342,636.79729 428.60036,636.79729 L 428.60036,638.8966 L 454.40108,638.8966 L 454.40108,636.79729 C 446.49692,636.79729 445.25658,635.09154 445.25658,625.07592 L 445.25658,582.74831 L 457.75068,582.74831"
       id="path101"
       style="fill:#ffffff;fill-rule:evenodd" />
    <path
       clip-rule="evenodd"
       d="M 509.49365,636.84151 L 509.49365,638.90765 L 556.22216,638.90765 L 556.98605,625.60323 L 554.98624,625.60323 L 554.50315,627.61741 C 553.27386,632.93917 552.22366,635.25847 543.44396,635.25847 L 535.22474,635.25847 C 527.29847,635.25847 526.15318,633.64668 526.15318,623.58241 L 526.15318,608.89615 L 530.92553,608.89615 C 540.48128,608.89615 542.00684,610.10997 542.00684,618.55803 L 544.02765,618.55803 L 544.02765,595.65365 L 542.00684,595.65365 C 542.00684,604.04642 540.48017,605.24698 530.92553,605.24698 L 526.1543,605.24698 L 526.1543,582.546 L 540.29003,582.546 C 549.08079,582.546 550.03481,584.84097 551.35475,590.04556 L 551.84226,592.04868 L 553.84208,592.04868 L 552.98865,578.88466 L 509.49365,578.88466 L 509.49365,580.96738 C 517.40223,580.96738 518.54751,582.546 518.54751,592.54946 L 518.54751,625.0925 C 518.54751,635.16339 517.40223,636.84151 509.49365,636.84151"
       id="path103"
       style="fill:#ffffff;fill-rule:evenodd" />
    <polyline
       clip-rule="evenodd"
       points="236.687,218.319 247.778,215.358 234.676,213.535   243.498,212.159 236.484,208.64 218.02,211.788 236.687,218.319 "
       id="polyline105"
       transform="matrix(1.1054772,0,0,1.1054772,-42.81712,-39.974719)"
       style="fill:#ffffff;fill-rule:evenodd" />
    <polyline
       clip-rule="evenodd"
       points="287.037,216.399 287.017,213.708 251.551,209.26   260.925,202.089 235.789,206.183 256.411,216.938 250.256,210.976 287.037,216.399 "
       id="polyline107"
       transform="matrix(1.1054772,0,0,1.1054772,-42.81712,-39.974719)"
       style="fill:#ffffff;fill-rule:evenodd" />
    <polyline
       clip-rule="evenodd"
       points="241.13,223.976 287.641,220.878 287.078,218.436   248.697,221.051 251.962,216.298 225.993,223.463 254.359,230.623 251.226,226.434 241.13,223.976 "
       id="polyline109"
       transform="matrix(1.1054772,0,0,1.1054772,-42.81712,-39.974719)"
       style="fill:#ffffff;fill-rule:evenodd" />
    <polyline
       clip-rule="evenodd"
       points="306.146,220.889 325.844,220.889 325.697,218.39   306.192,218.497 306.146,220.889 "
       id="polyline111"
       transform="matrix(1.1054772,0,0,1.1054772,-42.81712,-39.974719)"
       style="fill:#ffffff;fill-rule:evenodd" />
    <polyline
       clip-rule="evenodd"
       points="325.63,214.073 306.308,214.14 306.283,216.471   325.697,216.399 325.63,214.073 "
       id="polyline113"
       transform="matrix(1.1054772,0,0,1.1054772,-42.81712,-39.974719)"
       style="fill:#ffffff;fill-rule:evenodd" />
    <polyline
       clip-rule="evenodd"
       points="407.378,221.087 374.539,219.446 374.569,220.386   374.599,220.513 345.222,219.365 344.546,221.346 375.204,222.706 377.067,229.557 406.068,230.812 400.863,225.175   407.378,221.087 "
       id="polyline115"
       transform="matrix(1.1054772,0,0,1.1054772,-42.81712,-39.974719)"
       style="fill:#ffffff;fill-rule:evenodd" />
    <polyline
       clip-rule="evenodd"
       points="408.08,207.706 375.361,209.331 373.878,213.941   373.909,214.013 373.858,214.022 373.878,213.941 345.238,215.298 345.379,217.354 374.655,216.095 374.71,216.237 377.884,217.247   402.748,218.309 401.503,214.632 408.08,207.706 "
       id="polyline117"
       transform="matrix(1.1054772,0,0,1.1054772,-42.81712,-39.974719)"
       style="fill:#ffffff;fill-rule:evenodd" />
    <path
       clip-rule="evenodd"
       d="M 390.8859,263.33615 C 390.11095,232.39384 349.75993,211.68936 306.84752,211.66726 C 306.84752,211.67389 306.8243,211.66726 306.81988,211.66726 C 306.81546,211.66726 306.8022,211.66726 306.79225,211.66726 C 269.90467,211.72363 222.24423,228.89059 221.29463,263.07304 C 220.86239,278.19708 236.54137,286.63298 244.77054,281.60416 C 249.82921,278.51657 252.83279,272.94827 251.33819,267.18211 C 251.30502,267.0196 251.24864,266.86262 251.20442,266.70454 C 251.19779,266.6769 251.18674,266.64816 251.1812,266.62606 C 251.08503,266.24466 250.98443,265.85221 250.83298,265.46972 C 250.66495,265.07728 250.45712,264.75226 250.26034,264.40294 C 250.23713,264.36978 250.23271,264.35208 250.22718,264.3355 C 250.13763,264.18958 250.06468,264.04918 249.95745,263.90878 C 249.84469,263.71201 249.73303,263.50971 249.61033,263.32509 C 249.62138,263.39253 249.63354,263.45996 249.64902,263.5274 C 247.46459,260.76591 243.74908,259.69913 240.46471,261.21474 C 236.48388,263.03878 234.65985,267.9062 236.39987,272.09374 C 237.6966,275.19902 240.58741,277.03412 243.62527,277.03412 C 242.89566,279.40868 230.51099,277.75268 229.58461,268.52968 C 227.60912,248.70737 255.44835,217.43895 306.81878,217.41684 C 354.47921,217.39362 385.26012,252.06581 383.49688,269.87726 C 382.53733,279.69611 370.8657,279.7746 370.00675,277.03522 C 373.04349,277.03522 375.93432,275.20014 377.23215,272.09484 C 378.97216,267.9073 377.1636,263.04099 373.17283,261.21585 C 369.87851,259.70024 366.17295,260.76702 363.9841,263.52851 C 364.00622,263.46107 364.00622,263.39364 364.02833,263.3262 C 363.89346,263.51082 363.7807,263.71422 363.67568,263.9099 C 363.57398,264.05028 363.48996,264.19069 363.40594,264.3366 C 363.40041,264.35319 363.38825,264.36978 363.3783,264.40404 C 363.17601,264.75226 362.96817,265.07728 362.80014,265.47083 C 362.64869,265.85332 362.54698,266.24577 362.4475,266.62716 C 362.43534,266.65037 362.42981,266.67801 362.42428,266.70564 C 362.37895,266.86373 362.32921,267.0196 362.31152,267.18321 C 360.80697,272.94938 363.88351,278.36622 368.86258,281.60527 C 375.71765,286.08355 391.2894,280.08303 390.8859,263.33615"
       id="path119"
       style="fill:#ffffff;fill-rule:evenodd" />
    <path
       clip-rule="evenodd"
       d="M 295.85574,72.379354 C 294.77791,70.639324 293.72882,70.072214 291.11878,69.229844 C 286.80742,67.865684 284.02825,67.360484 282.59666,68.859514 C 281.90021,69.582494 281.58073,70.683544 281.68132,71.952624 L 281.68132,71.991324 L 281.68796,72.024494 C 282.10251,73.512454 284.20181,74.535024 285.89871,75.124244 C 287.97591,75.837274 289.90608,76.353524 290.78272,74.781544 C 290.80482,74.747274 290.84462,74.685374 290.88332,74.613514 C 291.13095,74.242064 291.57977,73.501394 291.37193,72.529684 C 292.36465,72.153834 294.20638,72.412514 295.40692,72.939814 L 296.50798,73.422914 L 295.85574,72.379354 M 332.58193,112.83207 L 332.85719,112.80886 C 333.14351,112.78675 360.84123,110.6985 372.60794,102.76007 C 376.64956,100.58227 379.46742,97.775474 382.19574,95.058204 C 384.35142,92.914684 386.37776,90.903824 388.78659,89.489914 C 392.08754,87.345294 401.63113,85.009424 404.70658,84.358294 L 404.60597,83.605464 C 389.27522,85.054744 384.03747,89.320774 378.50234,93.851024 C 374.41539,97.201734 370.17146,100.66077 361.48131,103.29953 C 348.199,107.31905 331.84678,108.76612 331.68427,108.77828 L 331.21224,108.83467 L 331.37474,109.29454 L 332.49238,112.55017 L 332.58193,112.83207 z M 283.89781,112.74694 C 284.15096,112.24175 284.15096,112.24175 284.07799,112.14114 L 283.99951,112.03944 L 283.88233,112.07813 L 283.47219,112.20194 C 283.38265,112.22517 273.88439,114.80645 253.3601,106.16162 C 244.14263,102.26592 236.82769,97.690344 230.38387,93.631034 C 220.90219,87.692414 212.71724,82.549734 202.38766,82.291044 L 202.23067,82.291044 L 202.20304,82.459084 L 202.16324,82.836054 L 202.14113,83.009604 L 202.30917,83.042774 C 203.19576,83.239554 203.93754,83.402054 204.59861,83.536924 C 207.90509,84.210164 209.41517,84.519694 217.34697,88.588954 C 224.09481,92.776504 232.31955,98.109324 241.82887,104.42492 C 257.46806,113.66007 271.00905,117.6221 279.96231,115.56813 C 280.07949,115.53496 280.17567,115.51174 280.2431,115.50621 C 282.726,115.0386 283.84253,112.84312 283.89781,112.74694 z M 331.40238,139.86209 L 329.95863,141.24283 C 344.44811,153.71151 334.42144,190.04854 334.42144,190.04854 L 319.55719,189.9811 C 319.55719,189.9811 314.45983,166.67876 314.06628,166.91422 C 312.98845,167.63278 313.12332,177.92256 317.04112,189.00386 L 317.01791,192.40542 L 295.82038,192.51265 L 295.92208,189.15531 C 298.81843,181.04995 299.30153,172.92028 298.81843,164.92657 C 298.79521,164.44901 292.9804,189.77881 293.08211,190.03196 L 277.75687,189.90815 L 274.59632,174.27891 C 272.73248,157.9886 273.41788,149.0066 280.21546,142.76397 C 280.01868,142.5274 279.50796,142.16811 279.12656,141.20304 C 270.64976,147.18698 270.80784,160.5931 271.01457,167.04356 C 265.80004,166.54389 259.77629,165.63408 255.31901,164.58941 C 262.69033,142.70759 271.83484,131.57543 273.62571,129.54909 C 273.68209,129.48055 273.76057,129.39101 273.82912,129.31916 C 273.90097,129.23514 273.96951,129.15666 274.03695,129.08259 L 273.51406,128.53869 C 273.58259,128.47015 273.64893,128.38061 273.7053,128.32534 C 273.8457,128.16835 273.98609,128.00585 274.14307,127.83781 C 274.14307,127.83781 273.97504,128.01137 273.7053,128.32534 C 273.63787,128.39387 273.58259,128.47126 273.51406,128.53869 L 273.13819,128.14071 C 273.13267,128.14624 272.96463,128.32534 272.6949,128.64592 C 264.05007,137.80701 256.86999,149.56266 251.3404,163.54583 C 247.43916,162.46247 243.75129,161.22102 240.14081,159.90217 C 250.66605,138.03695 261.79379,127.86545 263.94947,126.0182 C 264.01138,125.9563 264.09539,125.88886 264.17388,125.82143 C 264.25789,125.75399 264.34191,125.68656 264.41487,125.61912 L 263.89309,124.90056 C 263.96494,124.85634 264.03901,124.77785 264.08323,124.73806 C 264.25126,124.60429 264.41487,124.4639 264.58291,124.32903 C 264.58291,124.32903 264.39829,124.46942 264.08323,124.73806 C 264.0158,124.7889 263.96605,124.84529 263.89309,124.90056 L 263.65099,124.56339 C 263.64546,124.56339 263.45975,124.72148 263.14025,124.99011 C 252.8162,133.19827 243.72697,144.45867 236.11576,158.38657 C 232.2477,156.91075 228.35752,155.4062 224.25952,153.94587 C 238.1819,132.83789 251.21658,124.12563 253.71496,122.57575 C 253.79345,122.53152 253.88299,122.47515 253.97806,122.41435 C 254.06871,122.35133 254.15273,122.30711 254.23674,122.26178 L 253.76471,121.3354 C 253.82661,121.30224 253.89294,121.26355 253.94379,121.2348 C 254.12398,121.12757 254.30308,120.99822 254.49432,120.90316 C 254.49432,120.90316 254.28097,121.01592 253.94379,121.2348 C 253.88189,121.26796 253.82661,121.30224 253.76471,121.3354 L 253.64089,121.0944 C 253.62984,121.0944 253.42864,121.20716 253.07378,121.43158 C 241.03182,128.30211 229.87866,138.74998 219.90173,152.46342 C 215.69096,151.09374 211.18947,149.82465 206.1706,148.74792 C 223.37182,126.6627 238.69705,118.68115 241.62657,117.29377 C 241.71722,117.26061 241.80676,117.20976 241.90736,117.16554 C 241.99137,117.12574 242.08755,117.08705 242.18815,117.03067 L 241.77359,115.98047 C 241.81781,115.96388 241.87972,115.93072 241.91399,115.91304 C 242.11077,115.84007 242.29538,115.73948 242.49105,115.65988 C 242.49105,115.65988 242.2788,115.74389 241.91399,115.91304 C 241.8742,115.94067 241.82998,115.96388 241.77359,115.98047 L 241.70505,115.80691 C 241.69952,115.81243 241.47512,115.89646 241.10478,116.08217 C 226.89609,122.19546 213.36062,132.85004 200.91074,147.73862 C 196.21136,146.93051 191.09742,146.28934 185.38873,145.919 C 184.72544,145.87368 184.08538,145.85156 183.43425,145.82393 C 207.02955,118.89451 227.49194,111.45022 231.3987,110.22645 C 231.48271,110.20435 231.58994,110.17008 231.69054,110.14907 C 231.79225,110.11481 231.88731,110.08053 231.98349,110.05842 L 231.69054,108.85788 C 231.70823,108.84572 231.74692,108.83467 231.76903,108.82361 C 231.97133,108.76723 232.167,108.7009 232.37594,108.64453 C 232.37594,108.64453 232.15152,108.70643 231.76903,108.82361 C 231.74139,108.83577 231.71265,108.84682 231.69054,108.84682 L 231.66291,108.76833 C 231.65184,108.76833 231.42744,108.83687 231.04052,108.94853 C 212.2065,114.10116 193.7771,126.46371 176.27297,145.62936 C 168.04932,145.6172 160.28445,146.26281 152.72851,147.11071 C 184.15502,110.27399 211.85828,102.78439 217.14578,101.66232 C 217.24195,101.63911 217.33702,101.60595 217.44425,101.58384 C 217.54485,101.56726 217.65209,101.53961 217.74163,101.52746 L 217.5338,100.23626 C 217.54485,100.23626 217.56144,100.23626 217.56696,100.23626 C 217.77479,100.18652 217.98262,100.13566 218.19597,100.10249 C 218.19597,100.10249 217.96494,100.14671 217.56696,100.23626 C 217.56144,100.23626 217.54375,100.23626 217.5338,100.23626 L 217.5338,100.21968 C 217.52827,100.21968 217.29833,100.25837 216.89372,100.34792 C 185.64189,105.86093 159.64548,129.38881 143.28664,148.24493 C 136.0557,149.13152 128.02774,149.95178 120.74153,150.40613 C 157.27534,103.14367 201.97753,92.775394 202.42193,92.679214 L 202.24174,92.691374 L 202.20856,91.411234 C 202.6187,91.309524 202.84864,91.259784 202.84864,91.259784 C 200.50171,91.590334 198.21227,92.005994 195.94935,92.472494 C 156.82652,100.34792 131.28447,129.05716 117.25044,144.87654 C 115.13456,147.24558 113.31052,149.31171 111.733,150.95003 C 103.62653,151.90405 89.88324,153.39755 81.48051,154.25098 C 103.72161,134.02959 121.60712,118.74416 134.4406,108.23438 C 154.61557,91.729614 175.75118,79.116114 202.06375,78.891714 C 232.92757,78.621974 234.00652,101.17812 286.43819,106.3993 C 293.11307,98.400064 281.64926,74.434424 269.99532,77.213594 C 263.68526,78.712614 266.71095,87.559754 266.71095,87.559754 C 266.37378,87.121984 256.29183,75.815164 262.27577,69.562594 C 266.30635,65.362884 274.64828,68.776594 277.29811,70.033524 C 279.20174,65.598354 285.03423,60.810524 292.94392,63.000474 C 295.9685,63.825164 302.64339,65.161684 306.98903,67.923164 C 306.98903,67.923164 322.35294,86.213284 328.59667,101.93206 C 336.22557,101.93206 363.58061,97.810844 370.5418,92.590784 C 383.88601,82.598374 397.87031,78.589914 408.67634,78.589914 C 415.0251,78.589914 441.38741,86.678694 463.00059,101.34837 C 482.34534,114.4737 516.90477,142.32288 530.0511,154.24103 C 522.82017,153.1632 510.8976,151.41764 498.14261,149.72848 C 486.92091,138.18066 453.74333,106.00796 423.16583,95.127854 C 417.2261,92.944534 411.36597,91.535044 405.77446,91.260884 C 405.77446,91.260884 406.37032,91.367014 407.47026,91.636754 C 407.16183,91.613544 406.84125,91.563794 406.52619,91.547204 L 406.40348,92.877104 C 406.81914,92.945634 448.15293,100.92166 486.46656,148.24603 C 478.15779,147.2124 470.0458,146.33245 463.11335,145.73107 C 449.14675,130.17037 428.09515,111.29656 402.91791,103.26859 C 399.04985,102.0006 395.10329,100.95592 391.04508,100.23736 C 390.65264,100.14783 390.4216,100.1036 390.4216,100.1036 C 390.62942,100.13677 390.84278,100.18762 391.04508,100.23736 C 391.60666,100.35565 392.57175,100.58559 393.874,100.96145 C 393.21182,100.82105 392.54964,100.65302 391.88745,100.52921 C 391.50497,100.45073 391.26397,100.41645 391.25844,100.40539 L 391.06166,101.73087 C 391.15784,101.74192 391.24739,101.76403 391.36015,101.78724 C 391.46074,101.80382 391.56797,101.83146 391.66857,101.84363 C 396.74935,102.93141 423.46541,110.12917 454.16562,145.13632 C 452.13375,145.03462 450.3263,145.00145 448.81069,145.02356 C 442.23088,145.16949 437.13463,145.19159 432.15999,145.45028 C 416.12173,127.9749 399.30853,116.22477 382.10288,110.48846 C 380.37944,109.88155 378.63279,109.31443 376.84302,108.82582 C 376.46052,108.70864 376.24164,108.64673 376.24164,108.64673 C 376.44947,108.70311 376.64625,108.76944 376.84302,108.82582 C 377.12381,108.91647 377.56047,109.06239 378.04356,109.24148 C 377.94297,109.20832 377.83131,109.163 377.72961,109.14088 C 377.35928,109.02813 377.13486,108.96069 377.12381,108.96069 L 376.81538,110.25741 C 376.91046,110.28505 377,110.30827 377.11276,110.34143 C 377.21446,110.36464 377.31505,110.39781 377.41565,110.43208 C 381.30031,111.64478 401.74057,119.08797 425.32372,145.98865 C 420.51821,146.49384 415.3081,147.35834 408.6277,148.82972 C 395.9744,133.48127 382.19795,122.51716 367.66977,116.25795 C 367.32155,116.10096 367.09603,116.01032 367.08608,115.98931 L 367.05291,116.08991 C 366.94015,116.04569 366.8285,115.96721 366.69363,115.91635 C 366.33436,115.74832 366.12099,115.66319 366.12099,115.66319 C 366.31113,115.74169 366.50239,115.84229 366.69363,115.91635 C 366.79534,115.95504 366.94126,116.04569 367.05291,116.08991 L 366.61515,117.23519 C 366.70468,117.26835 366.79534,117.31367 366.89594,117.35789 C 366.98548,117.40322 367.08718,117.4596 367.19884,117.49829 C 370.20794,118.92988 386.01516,127.19885 403.62652,150.25468 C 398.30475,151.51824 393.94254,152.84923 390.00151,154.18466 C 379.76259,139.73607 368.23245,128.75426 355.70188,121.60846 C 355.37686,121.40615 355.16351,121.27681 355.15798,121.27681 L 355.05627,121.47359 C 354.92804,121.40615 354.81528,121.30555 354.66935,121.23812 C 354.32113,121.01923 354.11883,120.90647 354.11883,120.90647 C 354.31008,121.00154 354.48917,121.13089 354.66935,121.23812 C 354.78211,121.30002 354.92693,121.39952 355.05627,121.47912 L 354.55771,122.45082 C 354.64725,122.51273 354.73679,122.55142 354.82633,122.61333 C 354.91588,122.66971 355.00653,122.71945 355.10712,122.77031 C 357.70168,124.38762 371.26368,133.49785 385.57408,155.72789 C 381.53798,157.1816 377.69755,158.62535 373.43151,160.00057 C 365.63901,145.38173 356.30988,133.66037 345.64314,125.17251 C 345.35129,124.9083 345.15562,124.76791 345.15562,124.75686 L 344.91904,125.07634 C 344.79082,124.95915 344.6659,124.84639 344.53103,124.73916 C 344.21154,124.47054 344.03798,124.33014 344.03798,124.33014 C 344.20601,124.46501 344.35193,124.60541 344.53103,124.73916 C 344.63274,124.83534 344.78419,124.947 344.91353,125.07634 L 344.38511,125.82363 C 344.46359,125.88555 344.54319,125.95298 344.62167,126.02042 C 344.71122,126.09337 344.78971,126.16081 344.87925,126.22824 C 347.07363,128.10865 358.52637,138.61843 369.22075,161.28624 C 365.80704,162.2469 362.00198,163.17328 357.57787,164.02118 C 352.02616,149.91862 344.81182,138.06348 336.09402,128.81727 C 335.82981,128.51879 335.66068,128.34523 335.65626,128.3397 L 335.28592,128.7432 C 335.15658,128.61386 335.03276,128.46241 334.91559,128.32754 C 334.64032,128.01359 334.48224,127.84003 334.48224,127.84003 C 334.61711,128.00806 334.76302,128.17167 334.91559,128.32754 C 335.01065,128.4403 335.14552,128.59728 335.26823,128.74873 L 334.76302,129.28157 C 334.83157,129.35453 334.89789,129.4275 334.96644,129.51814 C 335.04383,129.59 335.11789,129.67511 335.19085,129.75913 C 336.96403,131.76336 346.10302,142.89552 353.46881,164.75522 C 349.83068,165.35549 345.18325,165.87286 340.71382,166.37807 C 341.18143,145.86263 331.40238,139.86209 331.40238,139.86209 z "
       id="path121"
       style="fill:#ffffff;fill-rule:evenodd" />
  </g>
</svg>
